<svg xmlns="http://www.w3.org/2000/svg" viewBox="0 0 88 31"><path fill="#4527a0" d="M0 0h88v31H0z"/><path fill="#263238" d="M88 0v31H0l2-2h84V2z" opacity=".5"/><path fill="#fff" d="m88 0-2 2H2v27l-2 2V0z" opacity=".5"/><path fill="#fff" d="M40.86 9.65c0-1.08-.59-1.64-1.48-1.64s-1.49.56-1.49 1.64v3.31h-1.21V9.65c0-1.08-.59-1.64-1.48-1.64s-1.49.56-1.49 1.64v3.31h-1.22V7.04h1.22v.68c.4-.48 1.04-.77 1.75-.77.93 0 1.72.4 2.13 1.17a2.3 2.3 0 0 1 2.06-1.17c1.39 0 2.44.87 2.44 2.52v3.49h-1.21V9.65Zm5.15-2.71c1 0 1.69.47 2.05.96v-.86h1.24v5.92h-1.24v-.88c-.38.5-1.08.98-2.07.98-1.54 0-2.77-1.26-2.77-3.08s1.24-3.03 2.79-3.03ZM46.27 8c-.91 0-1.79.69-1.79 1.97s.88 2.02 1.79 2.02 1.79-.72 1.79-2S47.19 8 46.27 8m7.03-1.06c.77 0 1.59.37 2.04.92V5h1.24v7.95h-1.24v-.89c-.38.54-1.08.99-2.05.99-1.56 0-2.79-1.26-2.79-3.08s1.24-3.03 2.8-3.03M53.55 8c-.91 0-1.79.69-1.79 1.97s.88 2.02 1.79 2.02 1.79-.72 1.79-2S54.47 8 53.55 8m7.18 5.05c-1.7 0-2.95-1.2-2.95-3.06s1.2-3.05 2.95-3.05 2.88 1.17 2.88 2.91q0 .3-.04.6h-4.52c.09.98.78 1.57 1.69 1.57.75 0 1.17-.37 1.4-.83h1.32c-.33 1.03-1.27 1.86-2.72 1.86Zm-1.68-3.59h3.28c-.02-.91-.74-1.49-1.65-1.49-.83 0-1.49.56-1.62 1.49Zm11.84-2.52c1.57 0 2.78 1.2 2.78 3.03s-1.22 3.08-2.78 3.08c-.98 0-1.68-.44-2.06-.96v.86h-1.22V5h1.22v2.91a2.5 2.5 0 0 1 2.06-.98ZM70.62 8c-.91 0-1.79.72-1.79 1.99s.88 2 1.79 2 1.8-.74 1.8-2.02S71.54 8 70.62 8m8.33-.96h1.27l-3.63 8.7h-1.27l1.2-2.88-2.33-5.82h1.36l1.67 4.51zm-44.47 10.9c1 0 1.69.47 2.05.96v-.86h1.24v5.92h-1.24v-.88c-.38.5-1.08.98-2.07.98-1.54 0-2.77-1.26-2.77-3.08s1.24-3.03 2.79-3.03Zm.26 1.06c-.91 0-1.79.69-1.79 1.97s.88 2.02 1.79 2.02 1.79-.72 1.79-2S35.66 19 34.74 19m7.43-2.99h1.22v2.72a2.4 2.4 0 0 1 1.84-.78c1.32 0 2.35.87 2.35 2.52v3.49h-1.21v-3.31c0-1.08-.59-1.64-1.48-1.64s-1.49.56-1.49 1.64v3.31h-1.22v-7.95Zm12.33 7.95h-1.22v-.71c-.39.5-1.05.79-1.75.79-1.39 0-2.44-.87-2.44-2.52v-3.48h1.21v3.3c0 1.08.59 1.64 1.48 1.64s1.49-.56 1.49-1.64v-3.3h1.22zm10-3.31c0-1.08-.59-1.64-1.48-1.64s-1.49.56-1.49 1.64v3.31h-1.21v-3.31c0-1.08-.59-1.64-1.48-1.64s-1.49.56-1.49 1.64v3.31h-1.22v-5.92h1.22v.68c.4-.48 1.04-.77 1.75-.77.93 0 1.72.4 2.13 1.17a2.3 2.3 0 0 1 2.06-1.17c1.39 0 2.44.87 2.44 2.52v3.49h-1.21v-3.31Zm5.15-2.71c1 0 1.69.47 2.05.96v-.86h1.24v5.92H71.7v-.88c-.38.5-1.08.98-2.07.98-1.54 0-2.77-1.26-2.77-3.08s1.24-3.03 2.79-3.03Zm.26 1.06c-.91 0-1.79.69-1.79 1.97s.88 2.02 1.79 2.02 1.79-.72 1.79-2S70.83 19 69.91 19m8.83 1.65c0-1.08-.59-1.64-1.48-1.64s-1.49.56-1.49 1.64v3.31h-1.22v-5.92h1.22v.68c.4-.48 1.05-.77 1.76-.77 1.39 0 2.43.87 2.43 2.52v3.49h-1.21v-3.31Z"/><circle cx="15.37" cy="15.5" r="10.3" fill="#ffcc80" stroke="#263238" stroke-miterlimit="10" stroke-width="1.5"/><rect width="2.54" height="3.4" x="7.55" y="13.8" fill="#263238" rx="1.27" ry="1.27"/><rect width="2.54" height="3.4" x="20.65" y="13.8" fill="#263238" rx="1.27" ry="1.27"/><path fill="none" stroke="#263238" stroke-miterlimit="10" stroke-width="1.5" d="M18.44 15.5a3.06 3.06 0 1 1-6.14 0"/></svg>
