<svg xmlns="http://www.w3.org/2000/svg" viewBox="0 0 880 270"><path fill="#E60076" d="M880 54v162a54 54 0 0 1-54 54H54a54 54 0 0 1-54-54V54A54 54 0 0 1 54 0h772a54 54 0 0 1 54 54m-204.4 74.5h14.5V54.3h-14.5zm33.6 0h14.5V66.3H736v-12h-39v12h12.2zm33.7 0h33.7v-12h-19.2v-20h18.1V85.3h-18.1v-19h19.2v-12h-33.7zm-443.6 66.1 3.9-8.8 10.5 30h15.1L313 174.3l15.3-33h-15l-13.4 32h-.5v-32H285v74.3h14.4zm35.7 21.1h14.4v-74.2H335zm24 0h33v-12h-18.5v-62.2H359zm39.9 0h33v-12h-18.5v-62.2h-14.5zm58.6 1a23 23 0 0 0 10.8-2.4 17 17 0 0 0 7-6.8 21 21 0 0 0 2.5-10.4v-1.7q0-4.7-1.3-8.4-1.4-3.6-4.4-6.6t-7.9-6.1l-4.6-3a22 22 0 0 1-5.8-5.1 10 10 0 0 1-1.7-6v-1.7q0-1.8.6-3.2a5 5 0 0 1 2-2.2q1.2-.7 3-.7 1.7 0 3 .8 1.2.8 1.9 2.4t.8 3.9v4.3h13.7v-4q-.1-5.8-2.4-10.2t-6.5-6.7a21 21 0 0 0-10.6-2.4q-6 0-10.6 2.4a17 17 0 0 0-7 6.7 20 20 0 0 0-2.4 10v1.6q0 7.2 3.3 12t9.5 8.6l4.6 3q4.8 3.1 6.6 5.6 1.8 2.6 1.8 6.3v1.9q0 2-.8 3.3a5 5 0 0 1-2 2.2q-1.4.7-3.2.7-2 0-3.4-.8-1.5-.7-2.2-2.4-1-1.5-1-3.9v-4.2H437v3.7q.2 6 2.6 10.4t6.9 6.8 11 2.3m42.6-1h14.5V186h17.5v-11.6h-17.5v-20.8h19.2v-12.1H500zm52-15h13.1l2.2 15H582l-13.9-74.2h-19l-13.8 74.2H550zM559 156l4.8 33.6h-10l4.8-33.6zm48.1 60.6a23 23 0 0 0 11-2.4 17 17 0 0 0 7-6.8 21 21 0 0 0 2.4-10.4v-1.7q0-4.7-1.3-8.3t-4.4-6.7-7.9-6.1l-4.6-3a22 22 0 0 1-5.8-5.1 10 10 0 0 1-1.7-6v-1.7q0-1.8.6-3.2a5 5 0 0 1 2-2.2q1-.7 3-.7 1.6 0 3 .8 1.2.8 1.9 2.4t.8 3.9v4.3h13.7v-4q-.2-5.8-2.4-10.2-2.3-4.3-6.5-6.7a21 21 0 0 0-10.6-2.4q-6 0-10.6 2.4a17 17 0 0 0-7 6.7 20 20 0 0 0-2.4 10v1.6q0 7.2 3.3 12t9.5 8.6l4.6 3q4.8 3.1 6.6 5.6 1.7 2.6 1.7 6.3v1.9q0 2-.7 3.3a5 5 0 0 1-2 2.2q-1.4.7-3.2.7-2 0-3.4-.8-1.5-.8-2.3-2.4t-1-3.9v-4.2h-13.7v3.7q.2 6 2.6 10.4 2.3 4.4 6.9 6.8 4.4 2.3 11 2.3m48.8 0q6.3 0 10.9-2.6 4.6-2.5 7.2-7.3t2.7-11.4v-8h-14v9q-.1 2.4-.9 4.3a6 6 0 0 1-2.2 2.7q-1.4 1-3.4 1t-3.7-1.1q-1.5-1-2.2-3-.8-1.8-.8-4.3v-34.8q0-2.4.8-4.3a6 6 0 0 1 6-4 6 6 0 0 1 3.3 1q1.5.9 2.2 2.7t.8 4.2v9h14.1v-8q0-6.6-2.7-11.4a18 18 0 0 0-7.3-7.4q-4.6-2.5-10.7-2.5-6.4 0-11.2 2.7a19 19 0 0 0-7.4 7.7 24 24 0 0 0-2.7 11.5v32.4q0 6.6 2.7 11.5 2.6 4.9 7.4 7.7t11.1 2.7m29.1-1h14.4v-74.2H685zm42.7 1a23 23 0 0 0 10.9-2.4 17 17 0 0 0 7-6.8 21 21 0 0 0 2.5-10.4v-1.7q0-4.7-1.4-8.4-1.5-3.6-4.4-6.6t-7.8-6.1l-4.7-3a22 22 0 0 1-5.8-5.1 10 10 0 0 1-1.7-6v-1.7q0-1.8.7-3.2t1.9-2.2 3-.7 3 .8 2 2.4.7 3.9v4.3h13.7v-4q0-5.8-2.4-10.2-2.1-4.3-6.5-6.7a21 21 0 0 0-10.6-2.4q-6 0-10.6 2.4a17 17 0 0 0-6.9 6.7 20 20 0 0 0-2.5 10v1.6q0 7.2 3.3 12t9.5 8.6l4.6 3q4.8 3.1 6.6 5.6 1.8 2.6 1.8 6.3v1.9q0 2-.7 3.3a5 5 0 0 1-2 2.2q-1.4.7-3.3.7-2 0-3.4-.8-1.5-.7-2.2-2.4-.9-1.5-1-3.9v-4.2H707v3.7q.3 6 2.6 10.4t6.9 6.8 11 2.3m36.7-1h14.5v-62.1H791v-12.1h-39v12h12.3zm52.3 1a23 23 0 0 0 10.9-2.4 17 17 0 0 0 7-6.8 21 21 0 0 0 2.5-10.4v-1.7q0-4.7-1.4-8.4-1.4-3.6-4.4-6.6t-7.9-6.1l-4.6-3a22 22 0 0 1-5.8-5.1 10 10 0 0 1-1.7-6v-1.7q0-1.8.6-3.2a5 5 0 0 1 2-2.2q1.2-.7 3-.7 1.7 0 3 .8 1.2.8 1.9 2.4t.8 3.9v4.3h13.7v-4q-.1-5.8-2.4-10.2t-6.5-6.7a21 21 0 0 0-10.6-2.4q-6 0-10.6 2.4a17 17 0 0 0-7 6.7 20 20 0 0 0-2.4 10v1.6q0 7.2 3.3 12t9.5 8.6l4.6 3q4.8 3.1 6.6 5.6 1.8 2.6 1.8 6.3v1.9q0 2-.7 3.3a5 5 0 0 1-2 2.2q-1.4.7-3.3.7-2 0-3.4-.8-1.5-.7-2.2-2.4-1-1.5-1-3.9v-4.2H796v3.7q.2 6 2.6 10.4t6.9 6.8 11 2.3m-435.4-88.2h14.4V54.3h-14.4zm42.7 1a23 23 0 0 0 10.9-2.4 17 17 0 0 0 7-6.8 21 21 0 0 0 2.5-10.4v-1.7q0-4.8-1.4-8.4t-4.4-6.6-7.9-6.1l-4.6-3a22 22 0 0 1-5.8-5.1 10 10 0 0 1-1.7-6v-1.7q0-1.9.6-3.3t2-2.1 3-.8 3 .8q1.2.9 1.9 2.4.7 1.6.8 4v4.2h13.7v-3.9q-.1-5.9-2.4-10.2t-6.5-6.7a21 21 0 0 0-10.6-2.4q-6 0-10.6 2.4a17 17 0 0 0-7 6.7 20 20 0 0 0-2.4 10V74q0 7.4 3.3 12.1 3.3 4.8 9.5 8.6l4.6 3q4.8 3 6.6 5.6t1.8 6.3v1.8q0 2-.7 3.4a5 5 0 0 1-2 2.2q-1.4.7-3.3.7-2 0-3.4-.8-1.5-.7-2.2-2.4-1-1.5-1-3.9v-4.2h-13.8v3.7q.2 6 2.6 10.4t6.9 6.7 11 2.4m50.6-1H491l6.2-54.5h.3l6 54.5H520l10-74.3h-13.7l-5.2 55.7h-.3l-6.3-55.7h-14.8l-6.3 55.7h-.3L478 54.3h-13.7zm-146.4 0h14.5V96.8H357v31.7h14.5V54.3H357v30.4h-14.5V54.3H328zm-33.7 0H309V66.3h12.3v-12h-39v12h12.2zm-148 110.6A104 104 0 0 0 249.6 135 104 104 0 0 0 146.3 30.9 104 104 0 0 0 43 135c0 57.4 46.4 104.1 103.3 104.1m72.1-138.7-2.8-1.6c-9.2-8.4-13.2-13.7-22.9-17.5-15-5.8-27.4 5.7-40.2 9.1-19.6 5.3-37.7 4-54.3-7.2-1.7-1.1-2.4-2.3-3.8-4A86 86 0 0 0 72 128.6q-.1.8.1 1.5c4 3.2 32.5 30.2 72.3 15.9 16.1-5.8 26.9.7 40.7 9.4 2.3 1.4 2.2 1.4 3.5 2.4L171.5 210l4.6-1.3 4.8-2.7 37.8-105.3a81 81 0 0 1 7.5 34.2 80 80 0 0 1-79.9 80.5A80 80 0 0 1 66.5 135a80 80 0 0 1 79.8-80.5c32 0 59.4 18.7 72.2 46m-50 50.3c-1.6-.9-2.5-1.3-4.2-2-11-4.4-18.6 1.8-30.4 3.8-25 4.3-43.5-3.3-61.7-18.5 0 1.7.1 2.8.4 4.5.7 4.2 1.8 6.2 3.7 10.3 9.3 19.5 34 28.4 53 25 8.8-1.6 11.8.5 18.5 3l1.8 1.3-11.5 34.3a18 18 0 0 0 7.8 1.2zm479-21.2a23 23 0 0 0 10.9-2.4 17 17 0 0 0 7-6.8 21 21 0 0 0 2.5-10.4v-1.7q0-4.8-1.4-8.4t-4.4-6.6-7.8-6.1l-4.7-3a22 22 0 0 1-5.8-5.1 10 10 0 0 1-1.7-6v-1.7q0-1.9.7-3.3t1.9-2.1 3-.8 3 .8 2 2.4q.6 1.6.7 4v4.2h13.7v-3.9q0-5.9-2.4-10.2-2.1-4.3-6.5-6.7a21 21 0 0 0-10.6-2.4q-6 0-10.6 2.4a17 17 0 0 0-7 6.7 20 20 0 0 0-2.4 10V74q0 7.4 3.3 12.1 3.3 4.8 9.5 8.6l4.6 3q4.8 3 6.6 5.6t1.8 6.3v1.8q0 2-.7 3.4a5 5 0 0 1-2 2.2q-1.4.7-3.3.7-2 0-3.4-.8-1.5-.7-2.2-2.4-.9-1.5-1-3.9v-4.2H627v3.7q.2 6 2.6 10.4t6.9 6.7 11 2.4m-110-1H571v-12h-19.2v-20H570V85.3h-18v-19h19v-12h-33.7zm65.9 0q5.7 0 9.6-2t5.9-5.7 2-9.2V104q0-4.5-1.4-7.5t-3.9-4.6a14 14 0 0 0-5.8-2.1v-.5q3-.3 5-1.8 2.1-1.5 3.3-4a17 17 0 0 0 1.2-6.9v-7q0-5-1.9-8.4A12 12 0 0 0 612 56a20 20 0 0 0-8.7-1.7h-23.5v74.2zm-9.1-63.3h5q3 0 4.4 1.5t1.4 4.7V79q0 3.4-1.4 4.9t-4.6 1.4h-4.8zm0 30h5.4a8 8 0 0 1 3.6.6q1.5.8 2 2.3.8 1.5.8 3.9v9q0 3.4-1.6 5-1.5 1.6-4.7 1.6h-5.5z"/></svg>
